<?xml version="1.0" encoding="UTF-8"?>
<svg width="30px" height="32px" viewBox="0 0 30 32" version="1.1" xmlns="http://www.w3.org/2000/svg" xmlns:xlink="http://www.w3.org/1999/xlink">
    <title>ic-airbnb</title>
    <desc>Created with Sketch.</desc>
    <defs></defs>
    <g id="Page-1" stroke="none" stroke-width="1" fill="none" fill-rule="evenodd">
        <g id="Airbnb-/-Desktop" transform="translate(-81.000000, -24.000000)" fill-rule="nonzero" fill="#FF5A5F">
            <g id="header">
                <g id="ic-airbnb" transform="translate(81.000000, 24.000000)">
                    <path d="M14.9156733,24.3602649 C13.1143488,22.0997792 12.0547461,20.1183223 11.7015453,18.4229581 C11.3483444,17.0454746 11.4896247,15.9505519 12.0900662,15.1381898 C12.7258278,14.1845475 13.6794702,13.7253863 14.9156733,13.7253863 C16.1518764,13.7253863 17.1055188,14.1845475 17.7412804,15.1381898 C18.3417219,15.9505519 18.4830022,17.0454746 18.1298013,18.4229581 C17.7412804,20.1536424 16.6816777,22.1315673 14.9156733,24.3602649 L14.9156733,24.3602649 Z M27.7086093,25.8790287 C27.4613687,27.5390728 26.3311258,28.9165563 24.7770419,29.587638 C21.7748344,30.8944812 18.804415,28.810596 16.2613687,25.984989 C20.4679912,20.7187638 21.2450331,16.6216336 19.4401766,13.9690949 C18.380574,12.4503311 16.8618102,11.7086093 14.9156733,11.7086093 C10.9951435,11.7086093 8.83708609,15.0286976 9.68476821,18.8821192 C10.1792494,20.9660044 11.4860927,23.3359823 13.5699779,25.984989 C12.2631347,27.4331126 11.0269316,28.4573951 9.93200883,29.0931567 C9.08432671,29.5523179 8.27196468,29.8348786 7.49492274,29.9055188 C3.92759382,30.4353201 1.13377483,26.9739514 2.40529801,23.4030905 C2.58189845,22.9439294 2.93509934,22.0962472 3.53554084,20.789404 L3.57086093,20.7187638 C5.51346578,16.4768212 7.88344371,11.6732892 10.6030905,6.33642384 L10.6737307,6.1598234 L11.4507726,4.67637969 C12.0512141,3.58145695 12.2984547,3.08697572 13.2520971,2.48653422 C13.7112583,2.20397351 14.2763797,2.06269316 14.9121413,2.06269316 C16.1836645,2.06269316 17.1726269,2.80441501 17.596468,3.40485651 C17.8083885,3.72273731 18.0556291,4.14657837 18.3735099,4.67637969 L19.1152318,6.12450331 L19.2211921,6.33642384 C21.9408389,11.6732892 24.3108168,16.4768212 26.2534216,20.7187638 L26.2887417,20.7540839 L26.9951435,22.3788079 L27.4189845,23.4030905 C27.7439294,24.2189845 27.8145695,25.0313466 27.7086093,25.8790287 Z M29.3333333,22.6966887 C29.0860927,21.9196468 28.6622517,21.0013245 28.1324503,19.9064018 L28.1324503,19.8710817 C25.6247241,14.5342163 23.2900662,9.73068433 21.0649007,5.41810155 L20.9236203,5.20618102 C19.3342163,1.95673289 18.2039735,0.0105960265 14.9156733,0.0105960265 C11.6662252,0.0105960265 10.2852097,2.27108168 8.87240618,5.20618102 L8.76644592,5.41810155 C6.54128035,9.73068433 4.20662252,14.5342163 1.69889625,19.8710817 L1.69889625,19.9417219 L0.957174393,21.5664459 C0.674613687,22.2375276 0.533333333,22.5907285 0.498013245,22.6966887 C-1.30331126,27.6450331 2.40529801,31.989404 6.89448124,31.989404 C6.92980132,31.989404 7.07108168,31.989404 7.24768212,31.9540839 L7.74216336,31.9540839 C10.0732892,31.6715232 12.4785872,30.1880795 14.9156733,27.5355408 C17.3527594,30.1845475 19.7580574,31.6715232 22.0891832,31.9540839 L22.5836645,31.9540839 C22.7602649,31.989404 22.9015453,31.989404 22.9368653,31.989404 C27.4260486,31.992936 31.1346578,27.6450331 29.3333333,22.6966887 Z" id="Shape"></path>
                </g>
            </g>
        </g>
    </g>
</svg>
